<?xml version="1.0" encoding="UTF-8" standalone="no"?>
<!-- Created with Inkscape (http://www.inkscape.org/) -->

<svg
   width="512"
   height="512"
   viewBox="0 0 512 512"
   version="1.1"
   id="svg1"
   inkscape:version="1.4 (e7c3feb100, 2024-10-09)"
   sodipodi:docname="hyprwallpaper-header.svg"
   xmlns:inkscape="http://www.inkscape.org/namespaces/inkscape"
   xmlns:sodipodi="http://sodipodi.sourceforge.net/DTD/sodipodi-0.dtd"
   xmlns:xlink="http://www.w3.org/1999/xlink"
   xmlns="http://www.w3.org/2000/svg"
   xmlns:svg="http://www.w3.org/2000/svg">
  <sodipodi:namedview
     id="namedview1"
     pagecolor="#ffffff"
     bordercolor="#000000"
     borderopacity="0.25"
     inkscape:showpageshadow="2"
     inkscape:pageopacity="0.0"
     inkscape:pagecheckerboard="0"
     inkscape:deskcolor="#d1d1d1"
     inkscape:document-units="px"
     inkscape:zoom="1.3313495"
     inkscape:cx="233.97312"
     inkscape:cy="276.78682"
     inkscape:window-width="1906"
     inkscape:window-height="991"
     inkscape:window-x="0"
     inkscape:window-y="0"
     inkscape:window-maximized="1"
     inkscape:current-layer="layer1" />
  <defs
     id="defs1">
    <inkscape:path-effect
       effect="powerclip"
       id="path-effect3"
       is_visible="true"
       lpeversion="1"
       inverse="true"
       flatten="false"
       hide_clip="false"
       message="" />
    <inkscape:path-effect
       effect="powerclip"
       id="path-effect2"
       is_visible="true"
       lpeversion="1"
       inverse="true"
       flatten="false"
       hide_clip="false"
       message="" />
    <linearGradient
       inkscape:collect="always"
       xlink:href="#linearGradient8692"
       id="linearGradient8694"
       x1="64.78627"
       y1="157.30736"
       x2="149.35242"
       y2="157.30736"
       gradientUnits="userSpaceOnUse"
       gradientTransform="matrix(3.7795276,0,0,3.7795276,-169.58764,-342.28035)" />
    <linearGradient
       id="linearGradient8692"
       inkscape:swatch="solid">
      <stop
         style="stop-color:#00ffff;stop-opacity:1;"
         offset="0"
         id="stop8690" />
    </linearGradient>
    <filter
       id="mask-powermask-path-effect2_inverse"
       inkscape:label="filtermask-powermask-path-effect2"
       style="color-interpolation-filters:sRGB"
       height="100"
       width="100"
       x="-50"
       y="-50">
      <feColorMatrix
         id="mask-powermask-path-effect2_primitive1"
         values="1"
         type="saturate"
         result="fbSourceGraphic" />
      <feColorMatrix
         id="mask-powermask-path-effect2_primitive2"
         values="-1 0 0 0 1 0 -1 0 0 1 0 0 -1 0 1 0 0 0 1 0 "
         in="fbSourceGraphic" />
    </filter>
    <clipPath
       clipPathUnits="userSpaceOnUse"
       id="clipPath2">
      <ellipse
         style="display:none;fill:#ffffff;fill-opacity:1;fill-rule:evenodd;stroke-width:1.14367;stroke-dasharray:none;paint-order:markers stroke fill"
         id="ellipse2"
         cx="218.02271"
         cy="236.07977"
         rx="141.93298"
         ry="142.20384"
         d="M 359.95569,236.07977 A 141.93298,142.20384 0 0 1 218.02271,378.28362 141.93298,142.20384 0 0 1 76.089722,236.07977 141.93298,142.20384 0 0 1 218.02271,93.875931 141.93298,142.20384 0 0 1 359.95569,236.07977 Z" />
      <path
         id="lpe_path-effect2"
         style="display:inline;fill:#ffffff;fill-opacity:1;fill-rule:evenodd;stroke-width:1.14367;stroke-dasharray:none;paint-order:markers stroke fill"
         class="powerclip"
         d="M 70.273849,88.269714 H 399.89394 V 416.26459 H 70.273849 Z M 359.95569,236.07977 A 141.93298,142.20384 0 0 0 218.02271,93.875931 141.93298,142.20384 0 0 0 76.089722,236.07977 141.93298,142.20384 0 0 0 218.02271,378.28362 141.93298,142.20384 0 0 0 359.95569,236.07977 Z" />
    </clipPath>
    <clipPath
       clipPathUnits="userSpaceOnUse"
       id="clipPath3">
      <ellipse
         style="display:none;fill:#ffffff;fill-opacity:1;fill-rule:evenodd;stroke-width:1.14367;stroke-dasharray:none;paint-order:markers stroke fill"
         id="ellipse3"
         cx="218.98692"
         cy="236.55513"
         rx="141.93298"
         ry="142.20384"
         d="M 360.91991,236.55513 A 141.93298,142.20384 0 0 1 218.98692,378.75897 141.93298,142.20384 0 0 1 77.05394,236.55513 141.93298,142.20384 0 0 1 218.98692,94.351288 141.93298,142.20384 0 0 1 360.91991,236.55513 Z" />
      <path
         id="lpe_path-effect3"
         style="display:inline;fill:#ffffff;fill-opacity:1;fill-rule:evenodd;stroke-width:1.14367;stroke-dasharray:none;paint-order:markers stroke fill"
         class="powerclip"
         d="M 72.293396,92.483414 H 407.51471 V 427.20152 H 72.293396 Z M 360.91991,236.55513 A 141.93298,142.20384 0 0 0 218.98692,94.351288 141.93298,142.20384 0 0 0 77.05394,236.55513 141.93298,142.20384 0 0 0 218.98692,378.75897 141.93298,142.20384 0 0 0 360.91991,236.55513 Z" />
    </clipPath>
  </defs>
  <g
     inkscape:label="Layer 1"
     inkscape:groupmode="layer"
     id="layer1">
    <path
       style="display:inline;fill:#54abab;fill-opacity:1;fill-rule:evenodd;stroke-width:0.892683"
       id="path13196"
       sodipodi:type="arc"
       sodipodi:cx="239.90405"
       sodipodi:cy="259.84247"
       sodipodi:rx="162.61066"
       sodipodi:ry="162.35905"
       sodipodi:start="4.4430368"
       sodipodi:end="4.4392574"
       sodipodi:arc-type="slice"
       d="M 196.63221,103.33751 A 162.61066,162.35905 0 0 1 396.61058,216.48973 162.61066,162.35905 0 0 1 283.47202,416.2655 162.61066,162.35905 0 0 1 83.279855,303.4908 162.61066,162.35905 0 0 1 196.04011,103.50192 l 43.86394,156.34055 z"
       clip-path="url(#clipPath3)"
       inkscape:path-effect="#path-effect3" />
    <path
       style="display:inline;fill:url(#linearGradient8694);fill-opacity:1;fill-rule:nonzero;stroke-width:1.28322;stroke-dasharray:none;paint-order:markers stroke fill"
       id="path5622"
       clip-path="url(#clipPath2)"
       inkscape:path-effect="#path-effect2"
       sodipodi:type="arc"
       sodipodi:cx="235.08389"
       sodipodi:cy="252.26715"
       sodipodi:rx="159.81004"
       sodipodi:ry="158.99744"
       d="M 394.89394,252.26715 A 159.81004,158.99744 0 0 1 235.08389,411.26459 159.81004,158.99744 0 0 1 75.273849,252.26715 159.81004,158.99744 0 0 1 235.08389,93.269714 159.81004,158.99744 0 0 1 394.89394,252.26715 Z" />
    <path
       sodipodi:type="star"
       style="fill:#54abab;fill-opacity:1;fill-rule:nonzero;stroke-width:0.465;stroke-dasharray:none;paint-order:markers stroke fill"
       id="path13192"
       inkscape:flatsided="false"
       sodipodi:sides="3"
       sodipodi:cx="142.18581"
       sodipodi:cy="122.69258"
       sodipodi:r1="11.25867"
       sodipodi:r2="5.6293354"
       sodipodi:arg1="-0.5491529"
       sodipodi:arg2="0.49804465"
       inkscape:rounded="0"
       inkscape:randomized="0"
       d="m 151.78908,116.81595 -4.6578,8.56581 -4.6578,8.56582 -5.08931,-8.31668 -5.08931,-8.31668 9.74711,-0.24914 z"
       inkscape:transform-center-x="0.63125043"
       inkscape:transform-center-y="0.14765433"
       transform="matrix(16.585927,0,0,0.20751689,-2018.8705,111.11129)" />
    <path
       style="fill:#53acac;fill-opacity:1;fill-rule:evenodd;stroke-width:0.677114"
       id="path8600"
       sodipodi:type="arc"
       sodipodi:cx="228.34622"
       sodipodi:cy="253.65875"
       sodipodi:rx="70.548798"
       sodipodi:ry="69.231331"
       sodipodi:start="0.079841118"
       sodipodi:end="4.5977126"
       sodipodi:arc-type="slice"
       d="m 298.67028,259.18039 a 70.548798,69.231331 0 0 1 -71.38239,63.7019 70.548798,69.231331 0 0 1 -69.40287,-65.77467 70.548798,69.231331 0 0 1 62.38864,-72.22548 l 8.07256,68.77661 z" />
    <ellipse
       style="fill:#54abab;fill-opacity:1;fill-rule:evenodd;stroke-width:0.999999"
       id="path8654"
       cx="338.35022"
       cy="138.84326"
       rx="39.838264"
       ry="40.221325" />
  </g>
</svg>
